<svg id="Layer_1" data-name="Layer 1" xmlns="http://www.w3.org/2000/svg" viewBox="0 0 457 80.82"><defs><style>.cls-1{fill:#1a1a1a;}.cls-2{fill:#ffe000;}</style></defs><title>RaspiBlitz_Logo_Main</title><path class="cls-1" d="M379.92,105.59c5.53.9,7.24,5.74,6.33,11.17l-2.11,11.57c-1.51,8.86-8.25,13.89-19.92,13.89H346l12.37-70.43H376.8c9.66,0,16.09,5,14.49,13.88l-1.51,8.85C388.77,100.56,385.65,104.89,379.92,105.59Zm-9.76,5.14h-7l-3.72,21.42h6.94c3.32,0,5.74-1.7,6.34-5.43l1.91-10.56C375.29,112.43,373.48,110.73,370.16,110.73Zm-5.24-9.87h6.54c3.33,0,5.74-1.71,6.44-5.43l1.41-8.15c.71-3.72-1.1-5.43-4.42-5.43h-6.54Z" transform="translate(-71.5 -66.59)"/><path class="cls-1" d="M420.09,142.22H390.4l12.38-70.43h11.67l-10.56,60h18Z" transform="translate(-71.5 -66.59)"/><path class="cls-1" d="M426.75,142.22l12.37-70.43h11.67l-12.37,70.43Z" transform="translate(-71.5 -66.59)"/><path class="cls-1" d="M490.65,82.05H478.87l-10.56,60.17H456.64L467.2,82.05H455.43l1.81-10.26h35.22Z" transform="translate(-71.5 -66.59)"/><path class="cls-1" d="M516.83,142.22H483.12l1.41-8.05,29.88-52.73H495.09l1.62-9.65H528.5l-1.41,8-29.78,52.72h21.23Z" transform="translate(-71.5 -66.59)"/><path class="cls-1" d="M333.53,119l-17-24.25,4.94-28.13L280.86,95l17,24.25-5,28.13Z" transform="translate(-71.5 -66.59)"/><polygon class="cls-2" points="234.77 50.84 220.42 30.4 238.84 17.49 236.65 29.98 250.97 50.45 232.54 63.33 234.77 50.84"/><path class="cls-1" d="M117.18,86.68,115,99.26c-1.2,6.94-4.52,11.16-9.86,13.28l4.73,29.68H98.26l-3.92-28.08H88.1l-4.93,28.08H71.5L83.87,71.79h18.21C111.74,71.79,119.09,76,117.18,86.68ZM99.87,82.05H93.74l-3.83,22h6.14c3.82,0,6.64-1.41,7.55-6.43l1.6-9.16C106.11,83.46,103.7,82.05,99.87,82.05Z" transform="translate(-71.5 -66.59)"/><path class="cls-1" d="M142.15,142.22l.31-15.7h-13l-5.23,15.7H112.67l25.46-70.43h14.69l.9,70.43Zm.41-25.36.6-31.29L132.7,116.86Z" transform="translate(-71.5 -66.59)"/><path class="cls-1" d="M188.36,96.94l1.81-9.86c.71-4.43-1.51-6-4.93-6s-6.24,1.61-6.94,6l-.91,4.83c-.6,3.62.1,5.63,3.12,7.55l7.45,4.62c6.24,3.93,9.66,7,8.35,14.09l-1.81,10.16c-1.92,10.86-8.25,14.69-19.92,14.69h-.21c-9.65,0-16.8-3.72-14.89-14.69l2.22-12.27h11.47l-1.91,10.66c-.71,4.33,1.4,6.24,4.92,6.24s6.44-1.91,7.15-6.24l1-5.53c.7-3.82-.21-5.84-3.32-7.75l-7.35-4.63c-5.43-3.42-9.36-7.85-8.25-14.09L167,85.47C168.94,75,176.28,71,187,71h.2c8.65,0,16.6,4,14.69,14.49l-2,11.47Z" transform="translate(-71.5 -66.59)"/><path class="cls-1" d="M246.24,86.68l-2.32,13.38C242,110.73,235.27,115,223.6,115h-6.54l-4.83,27.27H200.56l12.37-70.43h18.21C240.8,71.79,248.15,76,246.24,86.68Zm-12,1.81c.91-5-1.51-6.44-5.33-6.44h-6.14l-3.92,22.64H225c3.82,0,6.64-1.41,7.54-6.44Z" transform="translate(-71.5 -66.59)"/><path class="cls-1" d="M244.35,142.22l12.38-70.43H268.4L256,142.22Z" transform="translate(-71.5 -66.59)"/></svg>