<svg id="Layer_1" data-name="Layer 1" xmlns="http://www.w3.org/2000/svg" viewBox="0 0 247.64 167.19"><defs><style>.cls-1{fill:#fff;}.cls-2{fill:#ffe000;}</style></defs><title>RaspiBlitz_Logo_Stacked_Negative</title><path class="cls-1" d="M165.23,195.77c5.54.91,7.25,5.75,6.34,11.18l-2.11,11.57c-1.51,8.85-8.25,13.88-19.92,13.88H131.33L143.7,162h18.42c9.65,0,16.09,5,14.49,13.89l-1.52,8.85C174.09,190.74,171,195.08,165.23,195.77Zm-9.76,5.14h-6.94l-3.72,21.43h6.94c3.32,0,5.74-1.71,6.34-5.43L160,206.34C160.61,202.62,158.8,200.91,155.47,200.91Zm-5.23-9.86h6.54c3.32,0,5.74-1.72,6.44-5.44l1.41-8.15c.71-3.72-1.1-5.43-4.42-5.43h-6.54Z" transform="translate(-66.18 -70.41)"/><path class="cls-1" d="M205.4,232.4H175.72L188.1,162h11.67l-10.56,60h18Z" transform="translate(-66.18 -70.41)"/><path class="cls-1" d="M212.06,232.4,224.44,162h11.67L223.73,232.4Z" transform="translate(-66.18 -70.41)"/><path class="cls-1" d="M276,172.23H264.19L253.63,232.4H242l10.56-60.17H240.75L242.56,162h35.22Z" transform="translate(-66.18 -70.41)"/><path class="cls-1" d="M302.15,232.4H268.44l1.41-8.05,29.88-52.72H280.41L282,162h31.79L312.41,170l-29.78,52.72h21.23Z" transform="translate(-66.18 -70.41)"/><path class="cls-2" d="M118.85,209.16l-17-24.26,4.94-28.12L66.18,185.21l17,24.26-5,28.12Zm-41.61-22,18.42-12.92L94,183.52l-.57,3.24,1.88,2.69,12.44,17.77L89.36,220.11,91,210.86l.58-3.25-1.89-2.69Z" transform="translate(-66.18 -70.41)"/><path class="cls-1" d="M121.62,86.11,119.4,98.68c-1.2,6.94-4.52,11.17-9.86,13.28l4.73,29.68H102.7l-3.92-28.07H92.54l-4.93,28.07H75.94L88.31,71.21h18.21C116.18,71.21,123.53,75.43,121.62,86.11Zm-17.31-4.64H98.17l-3.82,22h6.14c3.82,0,6.64-1.41,7.54-6.44l1.61-9.16C110.55,82.88,108.13,81.47,104.31,81.47Z" transform="translate(-66.18 -70.41)"/><path class="cls-1" d="M146.59,141.64l.3-15.7h-13l-5.23,15.7H117.11l25.46-70.43h14.69l.9,70.43Zm.4-25.35L147.6,85l-10.47,31.29Z" transform="translate(-66.18 -70.41)"/><path class="cls-1" d="M192.8,96.36l1.81-9.85c.7-4.43-1.51-6.05-4.93-6.05s-6.24,1.62-6.94,6.05l-.91,4.83c-.6,3.61.1,5.63,3.12,7.54l7.45,4.63c6.23,3.92,9.65,6.94,8.34,14.09l-1.8,10.16c-1.92,10.86-8.26,14.69-19.93,14.69h-.2c-9.66,0-16.8-3.73-14.89-14.69l2.21-12.28H177.6l-1.91,10.66c-.7,4.34,1.41,6.24,4.93,6.24s6.44-1.9,7.15-6.24l1-5.53c.71-3.82-.2-5.83-3.32-7.75l-7.34-4.62c-5.44-3.42-9.36-7.85-8.25-14.09l1.61-9.25c1.91-10.47,9.25-14.49,19.92-14.49h.2c8.65,0,16.6,4,14.69,14.49l-2,11.46Z" transform="translate(-66.18 -70.41)"/><path class="cls-1" d="M250.67,86.11l-2.31,13.38c-1.91,10.66-8.65,14.88-20.32,14.88H221.5l-4.84,27.27H205l12.38-70.43h18.21C245.24,71.21,252.58,75.43,250.67,86.11Zm-12,1.8c.91-5-1.51-6.44-5.33-6.44h-6.14l-3.92,22.64h6.13c3.83,0,6.64-1.41,7.55-6.44Z" transform="translate(-66.18 -70.41)"/><path class="cls-1" d="M248.79,141.64l12.37-70.43h11.67l-12.37,70.43Z" transform="translate(-66.18 -70.41)"/></svg>