<svg id="Layer_1" data-name="Layer 1" xmlns="http://www.w3.org/2000/svg" viewBox="0 0 154.09 80.82"><defs><style>.cls-1{fill:#fff;}.cls-2{fill:#ffe000;}</style></defs><title>RaspiBlitz_Logo_Condensed_Negative</title><path class="cls-1" d="M214.93,105.59c5.54.9,7.24,5.74,6.34,11.17l-2.11,11.57c-1.51,8.86-8.25,13.89-19.93,13.89H181L193.4,71.79h18.41c9.66,0,16.1,5,14.49,13.88l-1.51,8.85C223.79,100.56,220.67,104.89,214.93,105.59Zm-9.76,5.14h-6.94l-3.72,21.42h6.94c3.32,0,5.73-1.7,6.34-5.43l1.91-10.56C210.3,112.43,208.49,110.73,205.17,110.73Zm-5.23-9.87h6.54c3.32,0,5.73-1.71,6.44-5.43l1.41-8.15c.7-3.72-1.11-5.43-4.43-5.43h-6.54Z" transform="translate(-72.45 -66.59)"/><path class="cls-1" d="M118.13,86.68l-2.21,12.58c-1.21,6.94-4.53,11.16-9.86,13.28l4.73,29.68H99.22l-3.93-28.08H89.05l-4.93,28.08H72.45L84.83,71.79H103C112.7,71.79,120,76,118.13,86.68Zm-17.3-4.63H94.69l-3.83,22H97c3.83,0,6.64-1.41,7.55-6.43l1.61-9.16C107.06,83.46,104.65,82.05,100.83,82.05Z" transform="translate(-72.45 -66.59)"/><path class="cls-2" d="M176.56,119l-17-24.25,4.94-28.13L123.89,95l17,24.25-5,28.13ZM134.94,97l18.43-12.91-2.19,12.49L165.5,117l-18.43,12.88,2.22-12.49Z" transform="translate(-72.45 -66.59)"/></svg>