<svg id="Layer_1" data-name="Layer 1" xmlns="http://www.w3.org/2000/svg" viewBox="0 0 162.55 240.56"><defs><style>.cls-1{fill:#1a1a1a;}.cls-2{fill:#ffe000;}.cls-3{fill:#ba005d;}</style></defs><title>RaspiBlitz_Logo_Berry</title><path class="cls-1" d="M251.28,205.33a25.32,25.32,0,0,0-21.64-25,25,25,0,0,0,3-11.82,25.2,25.2,0,0,0-43.92-16.91,25.45,25.45,0,0,0-9.49-6.56l20.62-14.44L178.44,100.1l6.21-35.38-51.1,35.78L155,131l-3.64,20.61a25.2,25.2,0,0,0-43.92,16.91,25,25,0,0,0,3,11.82,25.24,25.24,0,0,0,.29,50,24.89,24.89,0,0,0-3.25,12.34,25.28,25.28,0,0,0,21.93,25A24.78,24.78,0,0,0,126.08,280,25.21,25.21,0,0,0,170,297,25.21,25.21,0,0,0,213.92,280a24.88,24.88,0,0,0-3.25-12.33,25.28,25.28,0,0,0,21.93-25,24.89,24.89,0,0,0-3.25-12.34A25.28,25.28,0,0,0,251.28,205.33Z" transform="translate(-88.72 -64.72)"/><polygon class="cls-2" points="76.79 63.96 58.74 38.24 81.92 22 79.16 37.72 97.18 63.47 74 79.68 76.79 63.96"/><path class="cls-3" d="M226,189.83a15.44,15.44,0,0,0-15.3,13.56H204a15.45,15.45,0,0,0-6.7-10.94L202,183a15.3,15.3,0,1,0-3.45-1.76l-4.76,9.51a14.42,14.42,0,0,0-10.32,0l-4.79-9.44A15.48,15.48,0,1,0,170,184a15.19,15.19,0,0,0,5.2-1L180,192.5a15.44,15.44,0,0,0,13.8,27.39l5,9.92a15.44,15.44,0,0,0-6.69,10.94H185.3A15.46,15.46,0,0,0,170,227.19a15.29,15.29,0,0,0-5.12.94l-5-9.93A15.47,15.47,0,1,0,136,203.39h-6.76a15.46,15.46,0,0,0-6.61-10.89l4.79-9.44a15.24,15.24,0,0,0,5.2,1,15.51,15.51,0,1,0-8.68-2.67l-4.79,9.44a15.3,15.3,0,0,0-5.21-1,15.5,15.5,0,1,0,15.3,17.43H136a15.45,15.45,0,0,0,6.7,10.94l-5,9.93a15.29,15.29,0,0,0-5.12-.94,15.5,15.5,0,1,0,8.61,2.62l5-9.92a14.5,14.5,0,0,0,10.22,0l5,9.92a15.47,15.47,0,0,0,0,25.75l-5,9.92A15.47,15.47,0,1,0,166.62,282h6.76a15.5,15.5,0,1,0,0-3.87h-6.76a15.43,15.43,0,0,0-6.7-10.94l5-9.93a15.19,15.19,0,0,0,5.11.94,15.46,15.46,0,0,0,15.3-13.56h6.76a15.46,15.46,0,1,0,15.3-17.43,15.29,15.29,0,0,0-5.12.94l-5-9.93a15.45,15.45,0,0,0,6.7-10.94h6.76A15.46,15.46,0,1,0,226,189.83Z" transform="translate(-88.72 -64.72)"/></svg>